<svg width="1600" height="775" xmlns="http://www.w3.org/2000/svg"><g><path d="M-102,-92L-121,483L-111,326Z" fill="#f0f7ff" stroke="#f0f7ff" fill-opacity="1" stroke-opacity="1"/><path d="M-102,-92L-111,326L-97,220Z" fill="#fdfeff" stroke="#fdfeff" fill-opacity="1" stroke-opacity="1"/><path d="M-102,-92L-97,220L-37,119Z" fill="#fffeff" stroke="#fffeff" fill-opacity="1" stroke-opacity="1"/><path d="M-102,-92L-37,119L118,33Z" fill="#fffcfd" stroke="#fffcfd" fill-opacity="1" stroke-opacity="1"/><path d="M-102,-92L118,33L77,-115Z" fill="#fefafd" stroke="#fefafd" fill-opacity="1" stroke-opacity="1"/><path d="M77,-115L118,33L198,-46Z" fill="#f9f6fa" stroke="#f9f6fa" fill-opacity="1" stroke-opacity="1"/><path d="M77,-115L198,-46L416,-96Z" fill="#f4f2f8" stroke="#f4f2f8" fill-opacity="1" stroke-opacity="1"/><path d="M77,-115L416,-96L573,-114Z" fill="#ebebf4" stroke="#ebebf4" fill-opacity="1" stroke-opacity="1"/><path d="M198,-46L118,33L269,94Z" fill="#f6f3f9" stroke="#f6f3f9" fill-opacity="1" stroke-opacity="1"/><path d="M198,-46L269,94L337,63Z" fill="#f1f0f7" stroke="#f1f0f7" fill-opacity="1" stroke-opacity="1"/><path d="M198,-46L337,63L416,-96Z" fill="#eeedf5" stroke="#eeedf5" fill-opacity="1" stroke-opacity="1"/><path d="M416,-96L337,63L559,56Z" fill="#e4e6f2" stroke="#e4e6f2" fill-opacity="1" stroke-opacity="1"/><path d="M416,-96L559,56L573,-114Z" fill="#dce2f0" stroke="#dce2f0" fill-opacity="1" stroke-opacity="1"/><path d="M573,-114L559,56L621,-78Z" fill="#d4dfee" stroke="#d4dfee" fill-opacity="1" stroke-opacity="1"/><path d="M573,-114L621,-78L919,-113Z" fill="#c6d9ea" stroke="#c6d9ea" fill-opacity="1" stroke-opacity="1"/><path d="M621,-78L559,56L627,41Z" fill="#d2deed" stroke="#d2deed" fill-opacity="1" stroke-opacity="1"/><path d="M621,-78L627,41L792,-35Z" fill="#c9daeb" stroke="#c9daeb" fill-opacity="1" stroke-opacity="1"/><path d="M621,-78L792,-35L919,-113Z" fill="#bdd5e8" stroke="#bdd5e8" fill-opacity="1" stroke-opacity="1"/><path d="M792,-35L627,41L767,178Z" fill="#c3d8e9" stroke="#c3d8e9" fill-opacity="1" stroke-opacity="1"/><path d="M792,-35L767,178L874,121Z" fill="#b8d4e7" stroke="#b8d4e7" fill-opacity="1" stroke-opacity="1"/><path d="M792,-35L874,121L919,-113Z" fill="#b0d0e5" stroke="#b0d0e5" fill-opacity="1" stroke-opacity="1"/><path d="M919,-113L874,121L958,115Z" fill="#a8cde3" stroke="#a8cde3" fill-opacity="1" stroke-opacity="1"/><path d="M919,-113L958,115L1092,-105Z" fill="#9cc8e0" stroke="#9cc8e0" fill-opacity="1" stroke-opacity="1"/><path d="M1092,-105L958,115L1124,116Z" fill="#94c3dd" stroke="#94c3dd" fill-opacity="1" stroke-opacity="1"/><path d="M1092,-105L1124,116L1267,84Z" fill="#87bbd9" stroke="#87bbd9" fill-opacity="1" stroke-opacity="1"/><path d="M1092,-105L1267,84L1315,-33Z" fill="#82b6d4" stroke="#82b6d4" fill-opacity="1" stroke-opacity="1"/><path d="M1092,-105L1315,-33L1436,-41Z" fill="#82b1cd" stroke="#82b1cd" fill-opacity="1" stroke-opacity="1"/><path d="M1092,-105L1436,-41L1569,-47Z" fill="#81aac2" stroke="#81aac2" fill-opacity="1" stroke-opacity="1"/><path d="M1092,-105L1569,-47L1776,-51Z" fill="#81a0b3" stroke="#81a0b3" fill-opacity="1" stroke-opacity="1"/><path d="M1315,-33L1267,84L1414,39Z" fill="#82adc6" stroke="#82adc6" fill-opacity="1" stroke-opacity="1"/><path d="M1315,-33L1414,39L1436,-41Z" fill="#81a8bf" stroke="#81a8bf" fill-opacity="1" stroke-opacity="1"/><path d="M1436,-41L1414,39L1569,-47Z" fill="#81a1b4" stroke="#81a1b4" fill-opacity="1" stroke-opacity="1"/><path d="M1569,-47L1414,39L1567,116Z" fill="#819dae" stroke="#819dae" fill-opacity="1" stroke-opacity="1"/><path d="M1569,-47L1567,116L1715,25Z" fill="#8094a0" stroke="#8094a0" fill-opacity="1" stroke-opacity="1"/><path d="M1569,-47L1715,25L1776,-51Z" fill="#808e97" stroke="#808e97" fill-opacity="1" stroke-opacity="1"/><path d="M1776,-51L1715,25L1762,167Z" fill="#80898f" stroke="#80898f" fill-opacity="1" stroke-opacity="1"/><path d="M1776,-51L1762,167L1750,478Z" fill="#7b848d" stroke="#7b848d" fill-opacity="1" stroke-opacity="1"/><path d="M-37,119L-97,220L40,230Z" fill="#fcfafe" stroke="#fcfafe" fill-opacity="1" stroke-opacity="1"/><path d="M-37,119L40,230L118,33Z" fill="#fcf9fc" stroke="#fcf9fc" fill-opacity="1" stroke-opacity="1"/><path d="M118,33L40,230L175,220Z" fill="#f7f5fb" stroke="#f7f5fb" fill-opacity="1" stroke-opacity="1"/><path d="M118,33L175,220L269,94Z" fill="#f6f3f9" stroke="#f6f3f9" fill-opacity="1" stroke-opacity="1"/><path d="M269,94L175,220L330,219Z" fill="#efeef7" stroke="#efeef7" fill-opacity="1" stroke-opacity="1"/><path d="M269,94L330,219L337,63Z" fill="#edecf5" stroke="#edecf5" fill-opacity="1" stroke-opacity="1"/><path d="M337,63L330,219L507,209Z" fill="#e6e7f3" stroke="#e6e7f3" fill-opacity="1" stroke-opacity="1"/><path d="M337,63L507,209L559,56Z" fill="#e0e4f1" stroke="#e0e4f1" fill-opacity="1" stroke-opacity="1"/><path d="M559,56L507,209L681,241Z" fill="#d2ddee" stroke="#d2ddee" fill-opacity="1" stroke-opacity="1"/><path d="M559,56L681,241L627,41Z" fill="#cfdded" stroke="#cfdded" fill-opacity="1" stroke-opacity="1"/><path d="M627,41L681,241L767,178Z" fill="#c5d8eb" stroke="#c5d8eb" fill-opacity="1" stroke-opacity="1"/><path d="M874,121L767,178L853,343Z" fill="#accde6" stroke="#accde6" fill-opacity="1" stroke-opacity="1"/><path d="M874,121L853,343L983,223Z" fill="#9dc6e3" stroke="#9dc6e3" fill-opacity="1" stroke-opacity="1"/><path d="M874,121L983,223L958,115Z" fill="#a2cae2" stroke="#a2cae2" fill-opacity="1" stroke-opacity="1"/><path d="M958,115L983,223L1069,225Z" fill="#97c4e0" stroke="#97c4e0" fill-opacity="1" stroke-opacity="1"/><path d="M958,115L1069,225L1124,116Z" fill="#93c2de" stroke="#93c2de" fill-opacity="1" stroke-opacity="1"/><path d="M1124,116L1069,225L1243,185Z" fill="#86bada" stroke="#86bada" fill-opacity="1" stroke-opacity="1"/><path d="M1124,116L1243,185L1267,84Z" fill="#81b6d6" stroke="#81b6d6" fill-opacity="1" stroke-opacity="1"/><path d="M1267,84L1243,185L1433,245Z" fill="#7facc9" stroke="#7facc9" fill-opacity="1" stroke-opacity="1"/><path d="M1267,84L1433,245L1414,39Z" fill="#80a8c1" stroke="#80a8c1" fill-opacity="1" stroke-opacity="1"/><path d="M1414,39L1433,245L1567,116Z" fill="#7fa0b4" stroke="#7fa0b4" fill-opacity="1" stroke-opacity="1"/><path d="M1567,116L1433,245L1575,176Z" fill="#7e9aad" stroke="#7e9aad" fill-opacity="1" stroke-opacity="1"/><path d="M1567,116L1575,176L1762,167Z" fill="#7e919e" stroke="#7e919e" fill-opacity="1" stroke-opacity="1"/><path d="M1567,116L1762,167L1715,25Z" fill="#808f98" stroke="#808f98" fill-opacity="1" stroke-opacity="1"/><path d="M-97,220L-111,326L40,230Z" fill="#ebf2ff" stroke="#ebf2ff" fill-opacity="1" stroke-opacity="1"/><path d="M40,230L-111,326L17,410Z" fill="#d9e9fc" stroke="#d9e9fc" fill-opacity="1" stroke-opacity="1"/><path d="M40,230L17,410L240,320Z" fill="#d5e5fa" stroke="#d5e5fa" fill-opacity="1" stroke-opacity="1"/><path d="M40,230L240,320L175,220Z" fill="#e5eafa" stroke="#e5eafa" fill-opacity="1" stroke-opacity="1"/><path d="M175,220L240,320L330,219Z" fill="#dfe6f7" stroke="#dfe6f7" fill-opacity="1" stroke-opacity="1"/><path d="M330,219L240,320L328,361Z" fill="#cfdef5" stroke="#cfdef5" fill-opacity="1" stroke-opacity="1"/><path d="M330,219L328,361L507,209Z" fill="#d3ddf3" stroke="#d3ddf3" fill-opacity="1" stroke-opacity="1"/><path d="M507,209L328,361L553,359Z" fill="#bfd4f0" stroke="#bfd4f0" fill-opacity="1" stroke-opacity="1"/><path d="M507,209L553,359L681,241Z" fill="#bed3ee" stroke="#bed3ee" fill-opacity="1" stroke-opacity="1"/><path d="M681,241L553,359L636,363Z" fill="#aacaeb" stroke="#aacaeb" fill-opacity="1" stroke-opacity="1"/><path d="M681,241L636,363L853,343Z" fill="#9fc6e9" stroke="#9fc6e9" fill-opacity="1" stroke-opacity="1"/><path d="M681,241L853,343L767,178Z" fill="#abcbe8" stroke="#abcbe8" fill-opacity="1" stroke-opacity="1"/><path d="M983,223L853,343L933,377Z" fill="#83bbe2" stroke="#83bbe2" fill-opacity="1" stroke-opacity="1"/><path d="M983,223L933,377L1069,225Z" fill="#83bbe0" stroke="#83bbe0" fill-opacity="1" stroke-opacity="1"/><path d="M1069,225L933,377L1107,421Z" fill="#6ab0dc" stroke="#6ab0dc" fill-opacity="1" stroke-opacity="1"/><path d="M1069,225L1107,421L1243,185Z" fill="#71afda" stroke="#71afda" fill-opacity="1" stroke-opacity="1"/><path d="M1243,185L1107,421L1334,324Z" fill="#60a4d3" stroke="#60a4d3" fill-opacity="1" stroke-opacity="1"/><path d="M1243,185L1334,324L1433,245Z" fill="#6fa2c6" stroke="#6fa2c6" fill-opacity="1" stroke-opacity="1"/><path d="M1433,245L1334,324L1461,332Z" fill="#6296bc" stroke="#6296bc" fill-opacity="1" stroke-opacity="1"/><path d="M1433,245L1461,332L1575,176Z" fill="#6e95b1" stroke="#6e95b1" fill-opacity="1" stroke-opacity="1"/><path d="M1575,176L1461,332L1619,416Z" fill="#5e89a9" stroke="#5e89a9" fill-opacity="1" stroke-opacity="1"/><path d="M1575,176L1619,416L1707,359Z" fill="#5c809d" stroke="#5c809d" fill-opacity="1" stroke-opacity="1"/><path d="M1575,176L1707,359L1762,167Z" fill="#728798" stroke="#728798" fill-opacity="1" stroke-opacity="1"/><path d="M1762,167L1707,359L1750,478Z" fill="#56758e" stroke="#56758e" fill-opacity="1" stroke-opacity="1"/><path d="M-111,326L-121,483L17,410Z" fill="#bee0f9" stroke="#bee0f9" fill-opacity="1" stroke-opacity="1"/><path d="M17,410L-121,483L74,529Z" fill="#a4d4f1" stroke="#a4d4f1" fill-opacity="1" stroke-opacity="1"/><path d="M17,410L74,529L198,484Z" fill="#9fcfef" stroke="#9fcfef" fill-opacity="1" stroke-opacity="1"/><path d="M17,410L198,484L240,320Z" fill="#b7d8f4" stroke="#b7d8f4" fill-opacity="1" stroke-opacity="1"/><path d="M240,320L198,484L328,361Z" fill="#b7d5f3" stroke="#b7d5f3" fill-opacity="1" stroke-opacity="1"/><path d="M328,361L198,484L414,522Z" fill="#99c8eb" stroke="#99c8eb" fill-opacity="1" stroke-opacity="1"/><path d="M328,361L414,522L553,359Z" fill="#a0c8eb" stroke="#a0c8eb" fill-opacity="1" stroke-opacity="1"/><path d="M553,359L414,522L502,552Z" fill="#81bbe4" stroke="#81bbe4" fill-opacity="1" stroke-opacity="1"/><path d="M553,359L502,552L663,498Z" fill="#7cb8e3" stroke="#7cb8e3" fill-opacity="1" stroke-opacity="1"/><path d="M553,359L663,498L636,363Z" fill="#8fbfe7" stroke="#8fbfe7" fill-opacity="1" stroke-opacity="1"/><path d="M636,363L663,498L853,343Z" fill="#84bbe4" stroke="#84bbe4" fill-opacity="1" stroke-opacity="1"/><path d="M853,343L663,498L838,521Z" fill="#68b0de" stroke="#68b0de" fill-opacity="1" stroke-opacity="1"/><path d="M853,343L838,521L933,377Z" fill="#6ab1de" stroke="#6ab1de" fill-opacity="1" stroke-opacity="1"/><path d="M933,377L838,521L1032,481Z" fill="#4fa6d8" stroke="#4fa6d8" fill-opacity="1" stroke-opacity="1"/><path d="M933,377L1032,481L1107,421Z" fill="#4ea5d7" stroke="#4ea5d7" fill-opacity="1" stroke-opacity="1"/><path d="M1107,421L1032,481L1119,511Z" fill="#3699d0" stroke="#3699d0" fill-opacity="1" stroke-opacity="1"/><path d="M1107,421L1119,511L1265,550Z" fill="#268fcb" stroke="#268fcb" fill-opacity="1" stroke-opacity="1"/><path d="M1107,421L1265,550L1334,324Z" fill="#3793cb" stroke="#3793cb" fill-opacity="1" stroke-opacity="1"/><path d="M1334,324L1265,550L1460,532Z" fill="#2884b8" stroke="#2884b8" fill-opacity="1" stroke-opacity="1"/><path d="M1334,324L1460,532L1461,332Z" fill="#4489b6" stroke="#4489b6" fill-opacity="1" stroke-opacity="1"/><path d="M1461,332L1460,532L1553,514Z" fill="#2b79a7" stroke="#2b79a7" fill-opacity="1" stroke-opacity="1"/><path d="M1461,332L1553,514L1619,416Z" fill="#3a7aa3" stroke="#3a7aa3" fill-opacity="1" stroke-opacity="1"/><path d="M1619,416L1553,514L1750,478Z" fill="#266b92" stroke="#266b92" fill-opacity="1" stroke-opacity="1"/><path d="M1619,416L1750,478L1707,359Z" fill="#3a6e90" stroke="#3a6e90" fill-opacity="1" stroke-opacity="1"/><path d="M-121,483L-33,954L-56,768Z" fill="#91a2b6" stroke="#91a2b6" fill-opacity="1" stroke-opacity="1"/><path d="M-121,483L-56,768L-31,647Z" fill="#91b7d8" stroke="#91b7d8" fill-opacity="1" stroke-opacity="1"/><path d="M-121,483L-31,647L74,529Z" fill="#95c5ea" stroke="#95c5ea" fill-opacity="1" stroke-opacity="1"/><path d="M74,529L-31,647L57,716Z" fill="#90b3d6" stroke="#90b3d6" fill-opacity="1" stroke-opacity="1"/><path d="M74,529L57,716L191,629Z" fill="#8cb1d6" stroke="#8cb1d6" fill-opacity="1" stroke-opacity="1"/><path d="M74,529L191,629L198,484Z" fill="#8fbfe7" stroke="#8fbfe7" fill-opacity="1" stroke-opacity="1"/><path d="M198,484L191,629L319,637Z" fill="#85b4e1" stroke="#85b4e1" fill-opacity="1" stroke-opacity="1"/><path d="M198,484L319,637L414,522Z" fill="#85b7e2" stroke="#85b7e2" fill-opacity="1" stroke-opacity="1"/><path d="M414,522L319,637L502,552Z" fill="#7aaddd" stroke="#7aaddd" fill-opacity="1" stroke-opacity="1"/><path d="M502,552L319,637L366,770Z" fill="#7a9cc5" stroke="#7a9cc5" fill-opacity="1" stroke-opacity="1"/><path d="M502,552L366,770L583,684Z" fill="#7195bd" stroke="#7195bd" fill-opacity="1" stroke-opacity="1"/><path d="M502,552L583,684L663,498Z" fill="#67a3d8" stroke="#67a3d8" fill-opacity="1" stroke-opacity="1"/><path d="M663,498L583,684L696,656Z" fill="#5f98cb" stroke="#5f98cb" fill-opacity="1" stroke-opacity="1"/><path d="M663,498L696,656L838,521Z" fill="#589fd5" stroke="#589fd5" fill-opacity="1" stroke-opacity="1"/><path d="M838,521L696,656L852,694Z" fill="#4c8ec3" stroke="#4c8ec3" fill-opacity="1" stroke-opacity="1"/><path d="M838,521L852,694L960,647Z" fill="#3f8ac1" stroke="#3f8ac1" fill-opacity="1" stroke-opacity="1"/><path d="M838,521L960,647L1032,481Z" fill="#3a95ce" stroke="#3a95ce" fill-opacity="1" stroke-opacity="1"/><path d="M1032,481L960,647L1119,511Z" fill="#2d8fcb" stroke="#2d8fcb" fill-opacity="1" stroke-opacity="1"/><path d="M1119,511L960,647L1107,677Z" fill="#257fbd" stroke="#257fbd" fill-opacity="1" stroke-opacity="1"/><path d="M1119,511L1107,677L1265,550Z" fill="#197ec3" stroke="#197ec3" fill-opacity="1" stroke-opacity="1"/><path d="M1265,550L1107,677L1309,678Z" fill="#146dac" stroke="#146dac" fill-opacity="1" stroke-opacity="1"/><path d="M1265,550L1309,678L1460,532Z" fill="#146dac" stroke="#146dac" fill-opacity="1" stroke-opacity="1"/><path d="M1460,532L1309,678L1422,687Z" fill="#136097" stroke="#136097" fill-opacity="1" stroke-opacity="1"/><path d="M1460,532L1422,687L1524,673Z" fill="#135a8e" stroke="#135a8e" fill-opacity="1" stroke-opacity="1"/><path d="M1460,532L1524,673L1553,514Z" fill="#146299" stroke="#146299" fill-opacity="1" stroke-opacity="1"/><path d="M1553,514L1524,673L1736,625Z" fill="#125484" stroke="#125484" fill-opacity="1" stroke-opacity="1"/><path d="M1553,514L1736,625L1750,478Z" fill="#185a86" stroke="#185a86" fill-opacity="1" stroke-opacity="1"/><path d="M1750,478L1736,625L1703,995Z" fill="#123555" stroke="#123555" fill-opacity="1" stroke-opacity="1"/><path d="M-31,647L-56,768L57,716Z" fill="#91a4bd" stroke="#91a4bd" fill-opacity="1" stroke-opacity="1"/><path d="M57,716L-56,768L73,786Z" fill="#9099ad" stroke="#9099ad" fill-opacity="1" stroke-opacity="1"/><path d="M57,716L73,786L191,629Z" fill="#8c9fba" stroke="#8c9fba" fill-opacity="1" stroke-opacity="1"/><path d="M191,629L73,786L213,850Z" fill="#8a94ab" stroke="#8a94ab" fill-opacity="1" stroke-opacity="1"/><path d="M191,629L213,850L319,637Z" fill="#859ab9" stroke="#859ab9" fill-opacity="1" stroke-opacity="1"/><path d="M319,637L213,850L366,770Z" fill="#818da8" stroke="#818da8" fill-opacity="1" stroke-opacity="1"/><path d="M583,684L366,770L509,857Z" fill="#71809c" stroke="#71809c" fill-opacity="1" stroke-opacity="1"/><path d="M583,684L509,857L719,815Z" fill="#647794" stroke="#647794" fill-opacity="1" stroke-opacity="1"/><path d="M583,684L719,815L696,656Z" fill="#5d81a8" stroke="#5d81a8" fill-opacity="1" stroke-opacity="1"/><path d="M696,656L719,815L852,694Z" fill="#517ca5" stroke="#517ca5" fill-opacity="1" stroke-opacity="1"/><path d="M852,694L719,815L874,809Z" fill="#496f92" stroke="#496f92" fill-opacity="1" stroke-opacity="1"/><path d="M852,694L874,809L960,647Z" fill="#3d75a1" stroke="#3d75a1" fill-opacity="1" stroke-opacity="1"/><path d="M960,647L874,809L982,826Z" fill="#366a91" stroke="#366a91" fill-opacity="1" stroke-opacity="1"/><path d="M960,647L982,826L1107,677Z" fill="#2b6d9d" stroke="#2b6d9d" fill-opacity="1" stroke-opacity="1"/><path d="M1107,677L982,826L1166,805Z" fill="#225d89" stroke="#225d89" fill-opacity="1" stroke-opacity="1"/><path d="M1107,677L1166,805L1309,678Z" fill="#155f94" stroke="#155f94" fill-opacity="1" stroke-opacity="1"/><path d="M1309,678L1166,805L1239,842Z" fill="#14507d" stroke="#14507d" fill-opacity="1" stroke-opacity="1"/><path d="M1309,678L1239,842L1454,838Z" fill="#14456d" stroke="#14456d" fill-opacity="1" stroke-opacity="1"/><path d="M1309,678L1454,838L1422,687Z" fill="#134b75" stroke="#134b75" fill-opacity="1" stroke-opacity="1"/><path d="M1422,687L1454,838L1524,673Z" fill="#13456d" stroke="#13456d" fill-opacity="1" stroke-opacity="1"/><path d="M1524,673L1454,838L1631,868Z" fill="#133350" stroke="#133350" fill-opacity="1" stroke-opacity="1"/><path d="M1524,673L1631,868L1717,824Z" fill="#122c46" stroke="#122c46" fill-opacity="1" stroke-opacity="1"/><path d="M1524,673L1717,824L1736,625Z" fill="#123a5b" stroke="#123a5b" fill-opacity="1" stroke-opacity="1"/><path d="M1736,625L1717,824L1703,995Z" fill="#121f31" stroke="#121f31" fill-opacity="1" stroke-opacity="1"/><path d="M-56,768L-33,954L73,786Z" fill="#918a94" stroke="#918a94" fill-opacity="1" stroke-opacity="1"/><path d="M73,786L-33,954L96,1021Z" fill="#8f7a7d" stroke="#8f7a7d" fill-opacity="1" stroke-opacity="1"/><path d="M73,786L96,1021L213,850Z" fill="#8b7a81" stroke="#8b7a81" fill-opacity="1" stroke-opacity="1"/><path d="M213,850L96,1021L284,950Z" fill="#887479" stroke="#887479" fill-opacity="1" stroke-opacity="1"/><path d="M213,850L284,950L366,770Z" fill="#827886" stroke="#827886" fill-opacity="1" stroke-opacity="1"/><path d="M366,770L284,950L509,857Z" fill="#7b7382" stroke="#7b7382" fill-opacity="1" stroke-opacity="1"/><path d="M509,857L284,950L328,996Z" fill="#7c6a74" stroke="#7c6a74" fill-opacity="1" stroke-opacity="1"/><path d="M509,857L328,996L568,999Z" fill="#736571" stroke="#736571" fill-opacity="1" stroke-opacity="1"/><path d="M509,857L568,999L719,815Z" fill="#656172" stroke="#656172" fill-opacity="1" stroke-opacity="1"/><path d="M719,815L568,999L665,1030Z" fill="#5e5c6c" stroke="#5e5c6c" fill-opacity="1" stroke-opacity="1"/><path d="M719,815L665,1030L852,977Z" fill="#535769" stroke="#535769" fill-opacity="1" stroke-opacity="1"/><path d="M719,815L852,977L874,809Z" fill="#495b73" stroke="#495b73" fill-opacity="1" stroke-opacity="1"/><path d="M874,809L852,977L939,989Z" fill="#3e4f64" stroke="#3e4f64" fill-opacity="1" stroke-opacity="1"/><path d="M874,809L939,989L982,826Z" fill="#37536c" stroke="#37536c" fill-opacity="1" stroke-opacity="1"/><path d="M982,826L939,989L1098,922Z" fill="#2c4860" stroke="#2c4860" fill-opacity="1" stroke-opacity="1"/><path d="M982,826L1098,922L1166,805Z" fill="#234d6e" stroke="#234d6e" fill-opacity="1" stroke-opacity="1"/><path d="M1166,805L1098,922L1239,842Z" fill="#184469" stroke="#184469" fill-opacity="1" stroke-opacity="1"/><path d="M1239,842L1098,922L1224,981Z" fill="#163959" stroke="#163959" fill-opacity="1" stroke-opacity="1"/><path d="M1239,842L1224,981L1454,838Z" fill="#143350" stroke="#143350" fill-opacity="1" stroke-opacity="1"/><path d="M1454,838L1224,981L1485,990Z" fill="#13283f" stroke="#13283f" fill-opacity="1" stroke-opacity="1"/><path d="M1454,838L1485,990L1617,952Z" fill="#131d2e" stroke="#131d2e" fill-opacity="1" stroke-opacity="1"/><path d="M1454,838L1617,952L1631,868Z" fill="#121d2e" stroke="#121d2e" fill-opacity="1" stroke-opacity="1"/><path d="M1631,868L1617,952L1703,995Z" fill="#12121d" stroke="#12121d" fill-opacity="1" stroke-opacity="1"/><path d="M1631,868L1703,995L1717,824Z" fill="#12111b" stroke="#12111b" fill-opacity="1" stroke-opacity="1"/><path d="M96,1021L665,1030L328,996Z" fill="#7c6b74" stroke="#7c6b74" fill-opacity="1" stroke-opacity="1"/><path d="M96,1021L328,996L284,950Z" fill="#857278" stroke="#857278" fill-opacity="1" stroke-opacity="1"/><path d="M328,996L665,1030L568,999Z" fill="#6d6370" stroke="#6d6370" fill-opacity="1" stroke-opacity="1"/><path d="M665,1030L1703,995L1485,990Z" fill="#14314d" stroke="#14314d" fill-opacity="1" stroke-opacity="1"/><path d="M665,1030L1485,990L1224,981Z" fill="#1d3e5b" stroke="#1d3e5b" fill-opacity="1" stroke-opacity="1"/><path d="M665,1030L1224,981L939,989Z" fill="#364c62" stroke="#364c62" fill-opacity="1" stroke-opacity="1"/><path d="M665,1030L939,989L852,977Z" fill="#495467" stroke="#495467" fill-opacity="1" stroke-opacity="1"/><path d="M939,989L1224,981L1098,922Z" fill="#22415d" stroke="#22415d" fill-opacity="1" stroke-opacity="1"/><path d="M1485,990L1703,995L1617,952Z" fill="#121623" stroke="#121623" fill-opacity="1" stroke-opacity="1"/></g></svg>